<?xml version="1.0" encoding="utf-8"?>
<!-- Generator: Adobe Illustrator 28.0.0, SVG Export Plug-In . SVG Version: 6.00 Build 0)  -->
<svg version="1.1" id="Layer_1" xmlns="http://www.w3.org/2000/svg" xmlns:xlink="http://www.w3.org/1999/xlink" x="0px" y="0px"
	 width="36px" height="35.9px" viewBox="0 0 36 35.9" style="enable-background:new 0 0 36 35.9;" xml:space="preserve">
<style type="text/css">
	.st0{fill:#FC8E2C;}
	.st1{fill:#FDC991;}
	.st2{fill:#30DEA8;}
	.st3{fill:#2FCD48;}
	.st4{fill:#30E7A0;}
	.st5{fill:#FFFADA;}
	.st6{fill:#3767D3;}
	.st7{fill:#363924;}
	.st8{fill:#0A533C;}
</style>
<path class="st0" d="M23.8,25.3c-1.5,7-7.4,11.7-14.4,10.3c-7-1.5-10.6-8.2-9.1-15.2c1.5-7,5.3-19.7,15.9-17.5
	C25.8,4.9,25.3,18.3,23.8,25.3"/>
<path class="st1" d="M8.3,25c-0.2,0-0.5-0.1-0.7-0.2c-0.7-0.4-0.9-1.3-0.5-1.9c0.4-0.6,2.5-3.2,3.3-3.2c0.1,0,0.1,0,0.2,0
	c0.7,0.4-0.6,3.9-1,4.5C9.3,24.7,8.8,25,8.3,25 M12.3,6c-2.7,0-7.2,6.7-8.6,13.3c-1.4,6.9,1.1,11.1,3.7,11.6c0.1,0,0.2,0,0.3,0
	c2.3,0,3.1-5.3,4.5-11.9c1.4-6.9,2.9-12.5,0.3-13C12.5,6.1,12.4,6.1,12.3,6"/>
<path class="st1" d="M15.2,28.3c-0.7,0-1.3-0.5-1.4-1.2c-0.1-0.8,0.1-4.5,0.9-4.6c0,0,0,0,0,0c0.8,0,1.8,3.5,1.9,4.3
	c0.1,0.8-0.5,1.5-1.2,1.6C15.3,28.3,15.3,28.3,15.2,28.3 M16.2,10.1c-1.2,1.9-1.9,6-2.8,10.7C12,27.6,10.4,33.2,13,33.7
	c0.1,0,0.3,0,0.4,0c2.5,0,6.3-3.9,8-9.6C18.5,20.4,16.2,15.7,16.2,10.1"/>
<path class="st2" d="M18.7,3.8c7.1,3.6,6.5,15.2,5.2,21.5c-0.1,0.4-0.2,0.8-0.3,1.2c5.2,5.5,11.3,8.5,11.3,8.5
	C40.6,12.5,23.8,5.4,18.7,3.8"/>
<path class="st3" d="M18.5,3.7c0,0.2,0,0.5,0.1,0.8c0,0-0.4,0-0.8,0c-0.2,0-0.5,0-0.8-0.1c-0.5,2-0.7,3.8-0.7,5.6
	c0.5-0.8,1-1.2,1.7-1.2c0.1,0,0.2,0,0.3,0c2.6,0.5,5,6.9,3.6,13.7c-0.1,0.5-0.2,1-0.4,1.4c0.7,0.9,1.4,1.7,2.1,2.4
	c0.1-0.4,0.2-0.8,0.3-1.2c1.3-6.4,1.9-18-5.2-21.5C18.6,3.8,18.5,3.7,18.5,3.7"/>
<path class="st4" d="M17.9,8.9c-0.7,0-1.2,0.4-1.7,1.2c0,5.5,2.3,10.2,5.2,14c0.1-0.5,0.2-0.9,0.4-1.4c1.4-6.8-1-13.2-3.6-13.7
	C18.1,8.9,18,8.9,17.9,8.9"/>
<path class="st5" d="M14.7,22.5C14.7,22.5,14.7,22.5,14.7,22.5c-0.8,0.1-1,3.8-0.9,4.6c0.1,0.7,0.7,1.2,1.4,1.2c0,0,0.1,0,0.2,0
	c0.8-0.1,1.3-0.8,1.2-1.6C16.5,26,15.5,22.5,14.7,22.5"/>
<path class="st5" d="M10.4,19.7c-0.8,0-2.9,2.5-3.3,3.2c-0.4,0.7-0.2,1.5,0.5,1.9C7.8,24.9,8.1,25,8.3,25c0.5,0,1-0.2,1.2-0.7
	c0.4-0.7,1.7-4.2,1-4.5C10.5,19.7,10.5,19.7,10.4,19.7"/>
<path class="st6" d="M17.7,0c-0.2,0-0.3,0-0.4,0c-0.1,0-0.2,0-0.2,0l0,0c-1.2,1.2-1.4,2.7-1.5,2.8c0.2,0,0.4,0.1,0.6,0.1
	c0.8,0.2,1.6,0.4,2.2,0.8c-0.1-1.8,0.8-2.5,0.8-2.5C19.3,0.2,18.4,0,17.7,0"/>
<path class="st7" d="M15.7,2.8L15.7,2.8c-0.2,1.1,0.5,1.5,1.3,1.6c0.1-0.4,0.2-0.7,0.3-1.1c0,0,0.5,0.1,1.2,0.3c0,0,0,0,0,0
	c-0.7-0.3-1.4-0.6-2.2-0.8C16,2.9,15.9,2.9,15.7,2.8"/>
<path class="st8" d="M17.2,3.4c-0.1,0.4-0.2,0.7-0.3,1.1c0.3,0,0.6,0.1,0.8,0.1c0.5,0,0.8,0,0.8,0c0-0.3-0.1-0.5-0.1-0.8
	C17.7,3.5,17.2,3.4,17.2,3.4"/>
</svg>
