<?xml version="1.0" encoding="utf-8"?>
<!-- Generator: Adobe Illustrator 28.0.0, SVG Export Plug-In . SVG Version: 6.00 Build 0)  -->
<svg version="1.1" id="Layer_1" xmlns="http://www.w3.org/2000/svg" xmlns:xlink="http://www.w3.org/1999/xlink" x="0px" y="0px"
	 width="72.3px" height="98px" viewBox="0 0 72.3 98" style="enable-background:new 0 0 72.3 98;" xml:space="preserve">
<style type="text/css">
	.st0{fill:#A4C3F1;}
	.st1{fill:#007662;}
	.st2{fill:#007EDB;}
	.st3{fill:#5FDCB2;}
	.st4{fill:#3DA8A9;}
	.st5{fill:#006644;}
	.st6{fill:#00B4B9;}
	.st7{fill:#00BF7F;}
</style>
<path class="st0" d="M70.8,64.6c4.8,9.9-2.4,30.6-7.8,33.1c-4.3,1.9-26-4.6-30.8-14.4c-4.8-9.9,0-22.1,10.7-27.2S66,54.7,70.8,64.6"
	/>
<path class="st1" d="M40.7,0c-2.1,0-3.3,1.9-3.9,3.8c-0.4,1.4-0.6,3-0.5,4.5c0,0.7,0.1,1.5,0.3,2.2c0.2,0.7,0.3,1.5,0.4,2.2
	c0,0.7,0,1.5-0.6,2c-0.3,0.2-1,0.4-1.5,0.7c-1.1,0.7-1.2,0.9-1.5,1.2c-0.8,1-0.5,2.7-0.3,3.9c0.3,1.4,0.8,2.7,1.5,3.9
	c0.6,1.2,1.5,2.4,2.4,3.4c0.1,0.1,0.2,0.2,0.3,0.3c0.2-0.1,0.5-0.1,0.8-0.2c0.1,0,0.2,0,0.3,0c1.2,0,2.2,0.8,2.6,2
	c0.5,1.3,0.4,2.7,0.3,4.1c-0.2,1.5-0.4,2.9-0.6,4.4c-0.2,1.4-0.4,2.9-0.2,4.3c0,0.1,0,0.2,0,0.2c0.4,0.3,0.8,0.7,1.2,1.1
	c1,1.1,1.7,2.4,2.1,3.8c0.5,1.3,0.9,2.7,1.5,4c0.4,1,0.9,1.9,1.4,2.8c0.9-0.2,1.8-0.4,2.6-0.6c-0.5-0.8-1-1.6-1.2-2.5
	c-0.4-1.5-0.7-3-0.8-4.5c-0.1-1.6-0.2-2.4,0.5-3.8c1.2-2.5,3.3-4.7,3.8-7.6c0.2-1.1,0.1-2.2-0.3-3.3c-0.4-1.1-1.3-1.8-2.3-2.3
	c-1-0.5-2.4-0.8-2.9-2c-0.3-0.7-0.1-1.4,0.1-2.1c0.3-0.7,0.6-1.4,1-2c0.8-1.3,1.8-2.5,2.5-3.8c0.7-1.1,1.2-2.5,1.2-3.8
	c-0.1-1.1-0.5-2.2-1.7-2.5c-0.2,0-0.4-0.1-0.6-0.1c-0.3,0-0.6,0-0.9,0.1c-0.3,0-0.6,0.1-0.9,0.1c-0.5,0-1-0.1-1.4-0.5
	c-1-1-1.1-2.5-1.1-3.9c0.1-1.4,0.4-2,0.5-3.5c0.2-1.3,0.2-2.4-0.4-3.7c-0.5-1-1.4-1.9-2.5-2.2C41.5,0.1,41.1,0,40.7,0"/>
<path class="st2" d="M49.1,54c-0.9,0.1-1.8,0.3-2.6,0.6c0.2,0.3,0.3,0.6,0.5,0.9c1.5,2.4,2.3,4.6,3.1,4.8c0,0,0,0,0,0
	c0.4,0,1.8-1.9,1.8-1.9c0-0.7-0.5-0.6-1.9-3C49.7,54.9,49.4,54.5,49.1,54"/>
<path class="st3" d="M6.5,8.5c-1.3,0-2.4,0.5-3.1,1.8c-0.5,1.1-0.5,2.5,0,3.7c0.5,1.4,1.7,2.5,2.9,3.3c1.2,0.9,2.6,1.6,3.8,2.6
	c1.1,0.9,2.2,2.2,2.4,3.7c0.1,1.6-1.6,2.1-2.3,3.4c-0.2,0.4-0.3,0.8-0.3,1.1c1.5-0.3,3-0.5,4.4-0.5c2.3,0,4.5,0.4,6.3,1.2
	c3.8,1.7,5,3.4,6.4,5.7c1.7,2.8,3,8.2,5.2,11.6l0.3,0.5c0.8,0.1,1.7,0.3,2.5,0.5c1.7,0.5,3.2,1.4,4.4,2.6c1.2,1.2,1.9,2.7,2.6,4.1
	c0.4,0.7,0.7,1.4,1,2.1c0.8-0.3,1.5-0.7,2.3-0.9c-0.4-1.2-0.9-2.5-1.4-3.7c-0.6-1.4-1.4-2.8-2.2-4.1c-0.8-1.3-1.3-2.7-1.5-4.2
	c-0.6-0.5-1.3-1-1.9-1.4c-1.1-0.8-2.3-1.5-3.4-2.2c-1-0.7-2-1.5-2.6-2.7c-0.5-1.1-0.5-2.3,0.4-3.1c1-0.9,3.9-1.1,4.9-2
	c0.6-0.5,0.9-1.5,0.5-2.2c-0.2-0.4-0.6-0.8-0.9-1.2c-1.2,0.4-2.2,1.2-3.4,1.3c-0.1,0-0.1,0-0.2,0c-0.8,0-1.4-0.4-1.6-1.2
	c-0.2-0.7-0.2-1.4-0.3-2.1c-0.2-1.5-0.5-3-1-4.4c-0.5-1.4-1.2-2.8-2.1-4c-0.8-1.2-2-2.3-3.5-2.5c-0.1,0-0.2,0-0.3,0
	c-1.1,0-2.1,0.7-3,1.3c-0.5,0.3-1,0.6-1.7,0.7c0,0-0.1,0-0.1,0c-0.8,0-1.4-0.4-1.9-1c-0.6-0.6-1-1.3-1.5-1.9c-0.5-0.6-1-1.3-1.6-1.8
	c-1.2-1.1-2.5-2.1-4-2.8C9.7,9.1,8,8.5,6.5,8.5"/>
<path class="st4" d="M45.4,55c-0.8,0.3-1.5,0.6-2.3,0.9c0.3,0.8,0.6,1.6,0.9,2.5c0.8,2.5,1.7,4.6,2.3,5.2c0,0,0.3,0,0.8,0
	c0.7,0,1.7-0.1,1.4-0.8c-1.2-3.1-2.1-4.3-3-7.2C45.5,55.4,45.5,55.2,45.4,55"/>
<path class="st5" d="M38.3,28c-0.1,0-0.2,0-0.3,0c-0.3,0-0.5,0.1-0.8,0.2c0.3,0.4,0.7,0.7,0.9,1.2c0.4,0.7,0.1,1.7-0.5,2.2
	c-1,1-3.9,1.1-4.9,2c-0.9,0.8-1,2.1-0.4,3.1c0.6,1.1,1.6,1.9,2.6,2.7c1.1,0.8,2.3,1.5,3.4,2.2c0.7,0.4,1.3,0.9,1.9,1.4
	c0-0.1,0-0.2,0-0.2c-0.1-1.5,0-2.9,0.2-4.3c0.2-1.5,0.5-2.9,0.6-4.4c0.1-1.3,0.2-2.8-0.3-4.1C40.4,28.8,39.5,28,38.3,28"/>
<path class="st1" d="M9.9,28c-2,0.4-4,1.1-5.7,2c-2,1.1-4.2,3.2-4.2,5.7c0,2.6,2.8,3.5,5,3.6c2,0.1,6.7-0.2,5.9,3.2
	c-0.3,1.2-0.4,3.2,0.2,4.4C12,48.6,14,49,15.3,49c0.1,0,0.2,0,0.3,0c3-0.2,5-3.5,8.1-3.6c0.1,0,0.1,0,0.2,0
	c5.1,0,10.7,8.1,14.5,13.5c0.7-0.6,1.5-1.2,2.4-1.7l-8.2-10.6c-2.2-0.4-4.5-0.7-6.4-1.9c-1-0.7-1.9-1.5-2.4-2.6
	c-0.6-1.2-0.5-2.4-0.2-3.6c0.3-1.2,1.1-2.6,0.5-3.8c-0.3-0.7-1.1-1.1-1.8-1.4c-0.8-0.3-1.6-0.5-2.4-0.6c-1.6-0.3-3.3-0.4-4.9-0.8
	c-1.4-0.3-2.9-0.8-4-1.8C10.4,29.5,9.9,28.8,9.9,28"/>
<path class="st6" d="M40.7,57.2c-0.8,0.5-1.6,1.1-2.4,1.7c1.7,2.4,3,4.2,3.8,4.6c0,0,0,0,0.1,0c0.5,0,1-2.9,0.8-3.3L40.7,57.2"/>
<path class="st7" d="M14.3,27.6c-1.5,0-3,0.2-4.5,0.5c0,0.8,0.5,1.5,1,2.1c1,1,2.6,1.5,4,1.8c1.6,0.3,3.3,0.5,4.9,0.8
	c0.8,0.2,1.6,0.3,2.4,0.6c0.7,0.3,1.5,0.7,1.8,1.4c0.6,1.2-0.2,2.6-0.5,3.8c-0.3,1.2-0.4,2.4,0.2,3.6c0.5,1.1,1.4,2,2.4,2.6
	c2,1.3,4.2,1.5,6.4,1.9l-0.3-0.5c-2.2-3.4-3.4-8.8-5.2-11.6c-1.4-2.3-2.6-4.1-6.4-5.7C18.8,27.9,16.6,27.5,14.3,27.6"/>
</svg>
