<?xml version="1.0" encoding="utf-8"?>
<!-- Generator: Adobe Illustrator 28.0.0, SVG Export Plug-In . SVG Version: 6.00 Build 0)  -->
<svg version="1.1" id="Layer_1" xmlns="http://www.w3.org/2000/svg" xmlns:xlink="http://www.w3.org/1999/xlink" x="0px" y="0px"
	 width="54.1px" height="43.4px" viewBox="0 0 54.1 43.4" style="enable-background:new 0 0 54.1 43.4;" xml:space="preserve">
<style type="text/css">
	.st0{fill:#17A27B;}
	.st1{fill:#02673B;}
	.st2{fill:#6CDFB8;}
	.st3{fill:#10D89D;}
	.st4{fill:#01A24B;}
	.st5{fill:#4ED8AA;}
	.st6{fill:#0EE3A7;}
	.st7{fill:#01D17D;}
</style>
<path class="st0" d="M33.8,16.7c13.3,10.5,20.8,24.5,20.2,26c-0.9,2.5-16.3-1.4-29.6-11.9S3.1,4.1,6,4.5C9.1,5,20.5,6.2,33.8,16.7"
	/>
<path class="st0" d="M53.7,41.1c0.3,0.8,0.4,1.3,0.3,1.5C54.2,42.5,54.1,42,53.7,41.1 M44.8,27.4L44.8,27.4c0.9,1.1,1.8,2.3,2.7,3.3
	C46.7,29.7,45.8,28.6,44.8,27.4 M7.9,4.8C7.9,4.8,7.8,4.8,7.9,4.8c0.8,0.1,1.9,0.3,3.1,0.6C9.7,5.1,8.7,4.9,7.9,4.8"/>
<path class="st1" d="M7.8,4.8C7,5,6.4,5,6.4,5c0.7,0.6,1,1.2,1.2,1.9c4.7,6.9,20.1,26.9,46.4,35.7c0,0,0,0,0.1,0c0,0,0,0,0,0
	c0.1-0.2-0.1-0.8-0.3-1.5c-0.3-0.8-0.8-1.9-1.5-3.1c-0.7,0.6-1.6,0.9-2.5,0.9c-2.2,0-4-1.8-4-4c0-1.6,0.9-2.9,2.2-3.6
	c-0.1-0.2-0.3-0.4-0.4-0.6c-0.8-1.1-1.7-2.2-2.7-3.3C44.5,30,42.3,32,39.7,32c-2.9,0-5.2-2.3-5.2-5.2s2.2-5,4.9-5.2
	c-0.4-0.4-0.9-0.8-1.3-1.2c-0.9,1.2-2.4,2-4.1,2c-2.9,0-5.2-2.3-5.2-5.2c0-1.2,0.4-2.4,1.2-3.2c-0.8-0.5-1.5-1-2.2-1.5
	c0,0.2,0,0.5,0,0.7c0,2.9-2.3,5.2-5.2,5.2s-5.2-2.3-5.2-5.2c0-2,1.2-3.8,2.9-4.7c-0.6-0.3-1.2-0.5-1.7-0.7c-0.7,1.2-2,2-3.5,2
	c-2.2,0-4-1.8-4-4c0-0.1,0-0.3,0-0.4c-0.1,0-0.2,0-0.3-0.1C9.7,5.1,8.7,4.9,7.8,4.8"/>
<path class="st2" d="M22.6,8c-0.8,0-1.6,0.2-2.2,0.5c2.3,1,4.8,2.3,7.4,3.9C27.4,9.9,25.2,8,22.6,8"/>
<path class="st3" d="M20.4,8.5C20.4,8.5,20.3,8.5,20.4,8.5c2.3,1,4.8,2.3,7.4,3.9c0,0,0,0,0,0C25.1,10.8,22.7,9.5,20.4,8.5"/>
<path class="st4" d="M20.3,8.5c-1.7,0.8-2.9,2.6-2.9,4.7c0,2.9,2.3,5.2,5.2,5.2s5.2-2.3,5.2-5.2c0-0.2,0-0.5,0-0.7
	C25.1,10.8,22.6,9.6,20.3,8.5"/>
<path class="st2" d="M34,12c-1.6,0-3.1,0.7-4,1.9c1.2,0.8,2.5,1.8,3.8,2.8c1.5,1.2,2.9,2.4,4.3,3.7c0.7-0.9,1.1-2,1.1-3.2
	C39.2,14.3,36.9,12,34,12"/>
<path class="st3" d="M30,13.9C30,13.9,30,13.9,30,13.9c1.2,0.9,2.5,1.8,3.7,2.8c1.5,1.2,3,2.5,4.4,3.7l0,0c-1.3-1.3-2.8-2.5-4.3-3.7
	C32.5,15.7,31.2,14.8,30,13.9"/>
<path class="st4" d="M30,13.9c-0.7,0.9-1.2,2-1.2,3.2c0,2.9,2.3,5.2,5.2,5.2c1.7,0,3.1-0.8,4.1-2c-1.4-1.3-2.8-2.5-4.4-3.7
	C32.4,15.7,31.2,14.8,30,13.9"/>
<path class="st2" d="M39.7,21.6c-0.1,0-0.2,0-0.2,0c0.3,0.3,0.7,0.6,1,1c1.6,1.6,3.1,3.2,4.4,4.8c0-0.2,0-0.4,0-0.6
	C44.9,23.9,42.5,21.6,39.7,21.6"/>
<path class="st3" d="M39.4,21.6L39.4,21.6c0.3,0.3,0.7,0.6,1,1C40.1,22.3,39.8,21.9,39.4,21.6"/>
<path class="st3" d="M40.4,22.6c1.6,1.6,3.1,3.2,4.4,4.8l0,0C43.5,25.8,42,24.2,40.4,22.6"/>
<path class="st4" d="M39.4,21.6c-2.8,0.1-4.9,2.4-4.9,5.2c0,2.8,2.3,5.2,5.2,5.2c2.7,0,4.8-2,5.2-4.6c-1.3-1.6-2.8-3.2-4.4-4.8
	C40.1,22.3,39.8,21.9,39.4,21.6"/>
<path class="st2" d="M49.6,30.9c-0.6,0-1.2,0.2-1.8,0.4c1.8,2.5,3.3,4.8,4.3,6.6c0.9-0.7,1.4-1.8,1.4-3.1
	C53.6,32.7,51.8,30.9,49.6,30.9"/>
<path class="st3" d="M47.9,31.3L47.9,31.3c1.8,2.5,3.2,4.8,4.3,6.6c0,0,0,0,0,0C51.1,36.1,49.7,33.8,47.9,31.3"/>
<path class="st4" d="M47.9,31.3c-1.3,0.7-2.2,2-2.2,3.6c0,2.2,1.8,4,4,4c1,0,1.8-0.3,2.5-0.9C51.2,36.1,49.7,33.8,47.9,31.3"/>
<path class="st2" d="M15.2,1.9c-2,0-3.7,1.6-4,3.5c2.1,0.5,4.6,1.2,7.4,2.3c0.3-0.6,0.5-1.2,0.5-1.9C19.1,3.7,17.4,1.9,15.2,1.9"/>
<path class="st3" d="M11.2,5.5L11.2,5.5c2.1,0.5,4.6,1.2,7.4,2.4c0,0,0,0,0,0C15.8,6.7,13.3,5.9,11.2,5.5"/>
<path class="st4" d="M11.2,5.5c0,0.1,0,0.3,0,0.4c0,2.2,1.8,4,4,4c1.5,0,2.8-0.8,3.5-2C15.8,6.7,13.3,5.9,11.2,5.5"/>
<path class="st5" d="M1.1,0L0,1.5c0,0,5.6,1.6,5.4,11.5c0,0,1.1-1.3,1.7-3C5.5,6.7,5,4.5,5.9,4.5c0,0,0,0,0,0c0,0,0,0,0,0
	c0.5,0.1,1.1,0.2,1.9,0.3c1.6-0.4,3.9-1.5,4.8-4.4c0,0-2.5,2.5-5.9,2.5C5.1,2.9,3.1,2.2,1.1,0"/>
<path class="st6" d="M5.9,4.5c-1,0-0.5,2.2,1.2,5.5c0.4-1,0.6-2.1,0.4-3.1C6.6,5.5,6.1,4.7,5.9,4.5C6,4.5,5.9,4.5,5.9,4.5"/>
<path class="st6" d="M6,4.5C6,4.5,6,4.5,6,4.5C6,4.5,6,4.5,6,4.5c0.5,0.1,1.1,0.2,1.9,0.3c0,0,0,0,0,0C7,4.6,6.4,4.5,6,4.5"/>
<path class="st7" d="M6,4.5c0.1,0.2,0.6,1,1.5,2.4C7.4,6.2,7,5.6,6.4,5c0,0,0.6,0,1.5-0.2C7.1,4.7,6.5,4.6,6,4.5C6,4.5,6,4.5,6,4.5"
	/>
</svg>
