<?xml version="1.0" encoding="utf-8"?>
<!-- Generator: Adobe Illustrator 28.0.0, SVG Export Plug-In . SVG Version: 6.00 Build 0)  -->
<svg version="1.1" id="Layer_1" xmlns="http://www.w3.org/2000/svg" xmlns:xlink="http://www.w3.org/1999/xlink" x="0px" y="0px"
	 width="80.5px" height="95.5px" viewBox="0 0 80.5 95.5" style="enable-background:new 0 0 80.5 95.5;" xml:space="preserve">
<style type="text/css">
	.st0{fill:#00754E;}
	.st1{fill:#FFFAED;}
	.st2{fill:#BAD5BD;}
	.st3{fill:#F1FFCD;}
	.st4{fill:#39A249;}
	.st5{fill:#F6FFDF;}
	.st6{fill:#25924B;}
	.st7{fill:#C4DEB5;}
	.st8{fill:#EEFFB6;}
	.st9{fill:#56B646;}
	.st10{fill:#D1E9A8;}
	.st11{fill:#FF5582;}
	.st12{fill:#4D4D4A;}
</style>
<path class="st0" d="M80.5,47.5c0,24.6-18,44.6-40.3,44.6S0,72.2,0,47.5S18,3,40.2,3S80.5,22.9,80.5,47.5"/>
<path class="st1" d="M5.6,70.2c6.2,14.9,19.8,25.3,35.6,25.3v-3.4c-0.3,0-0.6,0-0.9,0C25.5,92.1,12.6,83.3,5.6,70.2"/>
<path class="st2" d="M40.7,8.7C19.3,9,2,28.3,2,52.1c0,6.5,1.3,12.6,3.6,18.1c7,13.1,19.9,21.9,34.7,21.9c0.3,0,0.6,0,0.9,0v-5.3
	c-0.2,0-0.3,0-0.5,0L40.7,8.7"/>
<path class="st3" d="M40.7,0L40.7,0c2.9,0.1,5.6,1.5,8.1,4c3.5,0.8,6.9,2.2,10,4C53.7,3,47.4,0,40.7,0"/>
<path class="st4" d="M48.8,4c6.7,6.8,11.4,21.9,11.4,39.5c0,22.8-7.9,41.5-18,43.2C58.8,85.6,72,66.6,72,43.4
	C72,28.8,66.8,15.8,58.8,8C55.7,6.2,52.3,4.8,48.8,4"/>
<polyline class="st5" points="40.7,0.1 40.7,3 40.7,3 40.7,0.1 40.7,0.1 "/>
<path class="st6" d="M42.2,86.7c-0.3,0-0.7,0-1,0.1v0.1C41.5,86.8,41.9,86.8,42.2,86.7 M40.7,3v5.7l0,0V3L40.7,3"/>
<path class="st7" d="M40.7,8.7L40.7,8.7v78.1c0.2,0,0.3,0,0.5,0v-0.1c-0.2,0-0.3,0-0.5,0V8.7"/>
<path class="st8" d="M40.7,0.1V3c2.8,0,5.5,0.4,8.1,1C46.3,1.5,43.6,0.1,40.7,0.1"/>
<path class="st9" d="M40.7,3v5.7c0.2,0,0.3,0,0.5,0v78c0.3,0,0.7,0,1-0.1c10-1.7,18-20.4,18-43.2c0-17.5-4.7-32.6-11.4-39.5
	C46.1,3.4,43.4,3,40.7,3"/>
<path class="st10" d="M41.2,8.7c-0.2,0-0.3,0-0.5,0v78c0.2,0,0.3,0,0.5,0V8.7"/>
<path class="st11" d="M45.6,95.1C24,95.1,6.5,75.7,6.5,51.7S24,8.4,45.6,8.4"/>
<path class="st12" d="M33.8,59.3c-0.6,0.4-1.3,0.6-1.9,0.4c-0.3-0.2-0.6-0.5-0.8-0.8c-0.1-0.2-0.2-0.4-0.2-0.7
	c0-0.4,0.4-0.7,0.7-0.9c0.5-0.3,1.1-0.4,1.7-0.4c0.4,0,2.1,0.1,2.1,0.7c0,0.3-0.5,0.8-0.7,1C34.5,58.8,34.2,59.1,33.8,59.3
	L33.8,59.3z"/>
<path class="st12" d="M39.1,68c-0.2,0.6-0.6,1.3-1.2,1.4c-0.4,0.1-0.8,0-1.1-0.1c-0.2-0.1-0.5-0.2-0.6-0.4c-0.2-0.3-0.2-0.8,0-1.2
	c0.2-0.6,0.6-1,1-1.4c0.3-0.2,1.7-1.3,2.1-0.8c0.2,0.3,0.1,0.9,0.1,1.2C39.3,67.2,39.2,67.6,39.1,68L39.1,68z"/>
<path class="st12" d="M32,65.7c-0.5,0.4-1.2,0.7-1.9,0.4c-0.3-0.1-0.6-0.4-0.8-0.8c-0.1-0.2-0.2-0.4-0.2-0.7c0-0.4,0.3-0.7,0.7-0.9
	c0.5-0.3,1.1-0.5,1.7-0.5c0.4,0,2.1,0,2.1,0.6c0,0.3-0.5,0.8-0.7,1C32.6,65.1,32.3,65.4,32,65.7L32,65.7z"/>
<path class="st12" d="M27.3,55.3c-0.7,0.1-1.4,0-1.9-0.5c-0.2-0.3-0.3-0.7-0.4-1c0-0.2,0-0.5,0.1-0.7c0.2-0.3,0.6-0.5,1-0.5
	c0.6-0.1,1.2,0.1,1.7,0.3c0.4,0.2,1.9,1,1.6,1.5c-0.2,0.3-0.8,0.5-1,0.6C28.1,55.1,27.7,55.2,27.3,55.3z"/>
<path class="st12" d="M32.3,40.5c-0.6-0.3-1.1-0.9-1.1-1.6c0-0.4,0.2-0.7,0.4-1c0.2-0.2,0.3-0.4,0.5-0.5c0.4-0.1,0.8,0,1.1,0.3
	c0.5,0.3,0.9,0.8,1.1,1.3c0.2,0.4,0.8,2,0.2,2.2c-0.3,0.1-0.9-0.1-1.2-0.2C33.1,40.8,32.7,40.7,32.3,40.5z"/>
<path class="st12" d="M33.7,34.3c-0.6-0.3-1.1-0.9-1.1-1.6c0-0.4,0.2-0.7,0.4-1c0.2-0.2,0.3-0.4,0.5-0.5c0.4-0.1,0.8,0,1.1,0.3
	c0.5,0.3,0.9,0.8,1.1,1.3c0.2,0.4,0.8,2,0.2,2.2c-0.3,0.1-0.9-0.1-1.2-0.2C34.5,34.7,34.1,34.5,33.7,34.3z"/>
<path class="st12" d="M29.5,49.5c-0.7,0-1.4-0.1-1.8-0.7c-0.2-0.3-0.3-0.7-0.2-1.1c0-0.2,0.1-0.5,0.2-0.7c0.2-0.3,0.7-0.4,1.1-0.4
	c0.6,0,1.2,0.2,1.7,0.5c0.3,0.2,1.8,1.2,1.4,1.7c-0.2,0.2-0.8,0.4-1.1,0.5C30.3,49.4,29.9,49.5,29.5,49.5L29.5,49.5z"/>
<path class="st12" d="M27.7,43.5c-0.7-0.1-1.3-0.4-1.6-1.1c-0.1-0.3-0.1-0.7,0-1.1c0.1-0.2,0.2-0.5,0.3-0.6c0.3-0.3,0.8-0.3,1.2-0.2
	c0.6,0.2,1.1,0.5,1.5,0.9c0.3,0.3,1.5,1.6,1,2c-0.2,0.2-0.9,0.2-1.2,0.2C28.6,43.6,28.1,43.6,27.7,43.5L27.7,43.5z"/>
<path class="st12" d="M39.5,33.6c-0.3-0.6-0.5-1.3-0.2-1.9c0.2-0.3,0.5-0.5,0.8-0.7c0.2-0.1,0.5-0.2,0.7-0.1
	c0.4,0.1,0.7,0.4,0.8,0.8c0.2,0.5,0.3,1.1,0.3,1.7c0,0.4-0.3,2.1-0.9,2c-0.3-0.1-0.7-0.6-0.9-0.8C39.9,34.3,39.7,34,39.5,33.6
	L39.5,33.6z"/>
</svg>
