<?xml version="1.0" encoding="utf-8"?>
<!-- Generator: Adobe Illustrator 28.0.0, SVG Export Plug-In . SVG Version: 6.00 Build 0)  -->
<svg version="1.1" id="Layer_1" xmlns="http://www.w3.org/2000/svg" xmlns:xlink="http://www.w3.org/1999/xlink" x="0px" y="0px"
	 width="57.3px" height="46.8px" viewBox="0 0 57.3 46.8" style="enable-background:new 0 0 57.3 46.8;" xml:space="preserve">
<style type="text/css">
	.st0{fill:#E2452B;}
	.st1{fill:#1CA57B;}
	.st2{fill:#317C29;}
	.st3{fill:#007662;}
	.st4{fill:#002011;}
	.st5{fill:#003910;}
</style>
<path class="st0" d="M57.3,21.4C56.9,12,50.9,7.4,46.1,5.5c-4-1.6-8.8-1-12.7-0.4c-2.1,0.3-3.9,0.6-5.2,0.6
	c-1.7,0.1-3.5-0.2-5.6-0.6c-3.5-0.5-7.4-1.1-11.4,0.4C6,7.4,0.4,10.6,0,21.4C-0.5,38.1,11.8,44,23.2,46.3c2,0.4,3.8,0.5,5.2,0.5l0,0
	h0.2h0.2l0,0C44,46.6,58,39.9,57.3,21.4"/>
<path class="st1" d="M17.4,0.9c-0.2,0-0.4,0-0.6,0.1c-1.3,0.6-0.8,2.1,0.1,3.6c2,0,3.9,0.3,5.7,0.6c0.2,0,0.3,0,0.5,0.1
	C21.7,3.5,19.2,0.9,17.4,0.9 M40.4,0.5c-0.7,0-1.4,0.2-2,0.4c-2,0.7-3.8,2.1-5.3,3.7c-0.2,0.3-0.5,0.5-0.7,0.7
	c0.3,0,0.6-0.1,0.9-0.1c2-0.3,4.3-0.6,6.6-0.6c0.1,0,0.2,0,0.3,0c0.7-0.5,1.2-1.2,1.6-1.9c0.4-0.8,0.2-1.7-0.7-2
	C41,0.5,40.7,0.5,40.4,0.5"/>
<path class="st2" d="M40,4.5c-2.3,0-4.6,0.3-6.6,0.6c-0.3,0-0.6,0.1-0.9,0.1c-1.2,1.3-1.6,2-3.1,4.2c0.4,1.2,0.9,2.2,1.8,2.8
	c0,0-1.6,1.2-3,1.2c-0.7,0-1.4-0.3-1.8-1.4c0,0-0.4-0.9-0.5-3.5c-0.8-0.8-1.5-1.7-2-2.4c-0.2-0.2-0.5-0.6-0.8-1
	c-0.2,0-0.3,0-0.5-0.1c-1.8-0.3-3.7-0.6-5.7-0.6c0.9,1.4,2.2,2.7,2.7,3.2c1.9,1.7,3.3,2.5,5.8,4.8c1,1.1-3.2,1.9-4.9,2.3
	c-1.7,0.4-3.7,0.4-5.2,1.6c-0.6,0.5-1.1,1.3-0.7,2.1c0.4,0.8,1.3,1,2.1,1c0,0,0,0,0,0c2,0,4-0.5,5.8-1.3c1.8-0.7,3.4-1.4,5.2-1.8
	c0.4-0.1,0.8-0.1,1.1-0.1c1.8,0,3.3,1,4.3,2.6c0.6,0.8,1.1,1.7,1.6,2.6c0.5,1,0.9,2,1.2,3c0.3,0.8,0.8,1.5,1.7,1.6c0,0,0,0,0,0
	c0.8,0,1.2-0.7,1.5-1.4c0.6-2.1,0.2-4-1-5.7c-0.6-0.8-1.4-1.7-2.2-2.3c-0.4-0.3-0.6-0.5-1.1-0.8c-0.2-0.1-0.5-0.4-0.7-0.6
	c-0.6-0.8,0.2-1.1,1.3-1.1c1,0,2.2,0.2,2.9,0.6c1.2,0.6,2.9,1.9,3.9,2.3c0.4,0.2,0.8,0.3,1.2,0.3c0.3,0,0.6-0.1,1-0.2
	c0.7-0.3,0.6-1.2,0.4-1.8c-0.3-0.8-0.9-1.4-1.6-1.9c-1.5-1.2-3.4-1.8-5.3-2c-0.3,0-0.5,0-0.8,0c-0.8,0-1.6,0.1-2.3,0.3
	c-0.8,0.2-1.6,0.5-2.4,0.5c-0.2,0-0.4,0-0.6-0.1C30.4,11.5,35,8.5,36.8,7c1.1-0.9,2.4-1.6,3.5-2.5C40.2,4.5,40.1,4.5,40,4.5"/>
<path class="st3" d="M28.1,0c-1.1,0-1.5,1-1.6,1c-0.2,1.8-0.4,3.3-0.5,4.7c0.6,0.1,1.2,0.1,1.7,0.1c0.2,0,0.3,0,0.5,0
	c0.1,0,0.1,0,0.2,0c0.2,0,0.3,0,0.5,0c-0.1-2.8,0.2-5.5,0.2-5.5C28.7,0.1,28.4,0,28.1,0"/>
<path class="st4" d="M26,5.7c-0.1,1.2-0.1,2.2,0,3c0.8,0.9,1.7,1.6,2.4,1.6c0.3,0,0.6-0.2,0.9-0.5c0-0.1,0.1-0.2,0.2-0.2
	c-0.3-1.2-0.5-2.5-0.6-3.8c-0.2,0-0.3,0-0.5,0c-0.1,0-0.1,0-0.2,0c-0.2,0-0.3,0-0.5,0C27.2,5.7,26.6,5.7,26,5.7"/>
<path class="st5" d="M26,8.7c0.1,2.6,0.5,3.5,0.5,3.5c0.4,1,1,1.4,1.8,1.4c1.4,0,3-1.2,3-1.2c-0.9-0.5-1.5-1.6-1.8-2.8
	c0,0.1-0.1,0.1-0.2,0.2c-0.2,0.4-0.5,0.5-0.9,0.5C27.7,10.2,26.8,9.5,26,8.7"/>
</svg>
