<?xml version="1.0" encoding="utf-8"?>
<!-- Generator: Adobe Illustrator 28.0.0, SVG Export Plug-In . SVG Version: 6.00 Build 0)  -->
<svg version="1.1" id="Layer_1" xmlns="http://www.w3.org/2000/svg" xmlns:xlink="http://www.w3.org/1999/xlink" x="0px" y="0px"
	 width="30.8px" height="29.1px" viewBox="0 0 30.8 29.1" style="enable-background:new 0 0 30.8 29.1;" xml:space="preserve">
<style type="text/css">
	.st0{fill:#852714;}
	.st1{fill:#FABDAA;}
	.st2{fill:#B64426;}
</style>
<path class="st0" d="M11.7,1.1C9.8-0.4,6.9-0.3,4.9,1C2.8,2.2,1.4,4.4,0.7,6.7c-1.9,5.9,0.2,12.9,5,16.8S17.8,28,23.2,25
	c1.5-0.9,2.9-2.1,3.6-3.7c0.5-1.2,0.6-2.4,0.5-3.7c-0.3-4.9-3.1-8.2-8.1-8.2c-1.9,0-3-0.2-4.1-2C13.8,5.3,13.7,2.7,11.7,1.1"/>
<path class="st1" d="M23.1,10.3c2.5,1.3,4,4,4.2,7.3c0.1,1.2,0,2.5-0.5,3.7c-0.7,1.6-2.1,2.8-3.6,3.7c-2.3,1.3-5,2-7.6,2
	c-3.5,0-7.1-1.2-9.9-3.4c-0.3-0.3-0.7-0.6-1-0.9c1.6,2.3,3.8,4.2,6.4,5.3c1.9,0.8,3.9,1.2,6,1.2c4.2,0,8.3-1.6,11.2-4.6
	c1.2-1.2,2.3-2.8,2.5-4.5c0.2-1.2-0.1-2.5-0.5-3.7C29,12.7,26.5,10.4,23.1,10.3"/>
<path class="st2" d="M8.8,4.3c-1.7,0-3.5,0.8-4.7,2.1C2.5,8.2,1.8,10.6,1.7,13c-0.1,3.4,1,6.8,3,9.6c0.3,0.3,0.7,0.6,1,0.9
	c2.8,2.2,6.3,3.4,9.9,3.4c2.7,0,5.3-0.7,7.6-2c1.5-0.9,2.9-2.1,3.6-3.7c0.5-1.2,0.6-2.4,0.5-3.7c-0.2-3.4-1.6-6-4.2-7.3
	c-0.1,0-0.2,0-0.3,0c-0.8,0-1.7,0.1-2.6,0.4c-0.8,0.2-1.4,0.4-2,0.4c-0.8,0-1.6-0.3-2.5-1.1c-1.8-1.7-2.6-4.2-5-5.2
	C10.1,4.4,9.5,4.3,8.8,4.3"/>
</svg>
