<?xml version="1.0" encoding="utf-8"?>
<!-- Generator: Adobe Illustrator 28.0.0, SVG Export Plug-In . SVG Version: 6.00 Build 0)  -->
<svg version="1.1" id="Layer_1" xmlns="http://www.w3.org/2000/svg" xmlns:xlink="http://www.w3.org/1999/xlink" x="0px" y="0px"
	 width="97.2px" height="95.4px" viewBox="0 0 97.2 95.4" style="enable-background:new 0 0 97.2 95.4;" xml:space="preserve">
<style type="text/css">
	.st0{fill:#F4683D;}
	.st1{fill:#FC8E2C;}
	.st2{fill:#FC9F4B;}
	.st3{fill:#F14112;}
	.st4{fill:#F9580D;}
	.st5{fill:#EE2805;}
	.st6{fill:#F63704;}
	.st7{fill:#17A27B;}
	.st8{fill:#173A91;}
	.st9{fill:#2C2F58;}
	.st10{fill:#2A3F54;}
	.st11{fill:#2B1D33;}
	.st12{fill:#2C282F;}
	.st13{fill:#2A1228;}
	.st14{fill:#2C1927;}
	.st15{fill:#04498E;}
</style>
<path class="st0" d="M76.2,34.5c0,10.2-12.1,18.4-27,18.4s-27-8.2-27-18.4s12.1-18.4,27-18.4S76.2,24.3,76.2,34.5"/>
<path class="st1" d="M97.2,52.8c0,24.1-17.6,43-48,42.7C17.3,95.1,0,75.3,0,51.2c0-13,7.5-34.5,25.5-35c14.3-0.5,13,12.7,25,12.7
	c13.1,0,10.7-13.5,22.3-12C92.5,19.5,97.2,40.7,97.2,52.8"/>
<path class="st2" d="M64.3,17.1c-1.2,0-2.1,0.4-2.9,1c1.2,0.4,2.3,0.9,3.4,1.4c0.7-0.7,1.5-1.4,2.5-1.8c-0.5-0.2-1.1-0.3-1.7-0.4
	C65.1,17.1,64.7,17.1,64.3,17.1 M32.7,16.5c-0.2,0-0.3,0-0.5,0c-0.6,0-1.1,0.1-1.6,0.2c1.8,0.5,3.3,1.2,4.5,2.1
	c0.8-0.3,1.6-0.6,2.4-0.9C36.3,17,34.7,16.5,32.7,16.5"/>
<path class="st3" d="M61.3,18c-0.8,0.6-1.4,1.4-2,2.3c0.5,1.1,1,2.3,1.4,3.8c1.4-1.6,2.5-3.3,3.9-4.7C63.6,18.9,62.5,18.4,61.3,18
	 M37.6,17.9c-0.8,0.3-1.6,0.6-2.4,0.9c0.6,0.4,1.2,0.9,1.7,1.4c0.3-0.8,0.7-1.5,1.1-2.1C37.8,18.1,37.7,18,37.6,17.9"/>
<path class="st4" d="M67.2,17.6c-0.9,0.5-1.7,1.1-2.5,1.8c-1.4,1.4-2.5,3.1-3.9,4.7c2.4,8,3.1,20.4,3.1,28.5
	c0,23.2-5.2,41.5-14.3,42.7c20.9-0.1,33.1-18.7,33.1-42.4C82.7,41.4,79.6,21.5,67.2,17.6 M30.6,16.7c-11.5,2.2-16.4,22.2-16.4,34.6
	c0,23.4,11.6,42.8,33.1,44c-9.6-1.7-14.8-21-14.8-44.2c0-9.6,1.3-23.7,4.3-30.8c-0.5-0.5-1.1-1-1.7-1.4
	C33.9,17.9,32.4,17.1,30.6,16.7"/>
<path class="st2" d="M40.6,16c-0.9,0.1-1.7,0.8-2.4,1.7c1-0.3,2.1-0.6,3.2-0.8C41.2,16.6,40.9,16.2,40.6,16"/>
<path class="st3" d="M57,17.2c0.1,1.7,0.4,3.5,0.9,5.5c0.5-0.8,0.9-1.7,1.4-2.4C58.7,19,57.9,17.9,57,17.2 M41.5,16.9
	c-1.1,0.2-2.2,0.5-3.2,0.8c-0.1,0.1-0.2,0.3-0.3,0.5c3.5,2.7,4.9,8,8.6,10.1c0.8,0.2,1.6,0.4,2.5,0.5c-0.1,0-0.2-0.1-0.3-0.1
	c-0.7,0-1.3-0.5-1.8-1.3c-0.8-0.8-1.6-1.9-2.3-3.3c-0.2-0.2-0.4-0.4-0.5-0.7l0,0v0l0-0.2c0-0.1-0.1-0.3-0.1-0.6
	c-0.1-0.5-0.3-1.2-0.6-2C43,19.3,42.4,18,41.5,16.9"/>
<path class="st4" d="M47.3,95.2c0.4,0.1,0.7,0.1,1.1,0.1c0.1,0,0.2,0,0.2,0c0.3,0,0.6,0,0.9-0.1c-0.1,0-0.1,0-0.2,0
	c-0.2,0-0.3,0-0.5,0C48.4,95.3,47.9,95.2,47.3,95.2 M46.5,28.2c0.9,0.5,2,0.8,3.3,0.8l0,0c-0.3-0.1-0.5-0.2-0.8-0.3
	C48.1,28.7,47.3,28.5,46.5,28.2"/>
<path class="st5" d="M59.4,20.3c-0.5,0.8-0.9,1.6-1.4,2.4c0.3,1,0.6,2,1,3c0,0-0.4,0.4-1.1,1c1.1-0.8,2.1-1.7,2.9-2.7
	C60.4,22.7,59.9,21.4,59.4,20.3 M37.9,18.2c-0.4,0.6-0.7,1.3-1.1,2.1c3.1,2.9,5.3,6.6,9.6,8C42.9,26.2,41.5,20.9,37.9,18.2"/>
<path class="st6" d="M36.8,20.2c-3,7-4.3,21.2-4.3,30.8c0,23.2,5.2,42.6,14.8,44.2c0.5,0,1,0.1,1.6,0.1c0.2,0,0.3,0,0.5,0
	c0.1,0,0.1,0,0.2,0C58.7,94.1,64,75.8,64,52.6c0-8.2-0.7-20.6-3.1-28.5c-0.8,1-1.8,1.9-2.9,2.7c-1.3,1-3.7,2.6-6.3,2.6
	c-0.6,0-1.2-0.1-1.8-0.3l0,0c-1.3,0-2.4-0.3-3.3-0.8C42.1,26.8,40,23.2,36.8,20.2"/>
<path class="st7" d="M46.3,23c0,0-0.2-1.5-0.9-3.3c-0.7-1.8-1.8-4.1-3.9-5.7c-1.7-1.4-3.2-2.8-4.3-4.1c-0.5-0.7-1-1.3-1.3-2
	c-0.3-0.6-0.4-1.2-0.4-1.8c0-0.5,0.1-1,0.4-1.5c0.3-0.6,0.6-0.9,0.9-1c0.3-0.2,0.7-0.2,1-0.2c0.4,0,0.8,0.1,1.1,0.2
	c0.2,0.1,0.3,0.1,0.4,0.1l0.1,0h0l0.1-0.2l-0.1,0.2l0,0l0.1-0.2l-0.1,0.2l0,0l0,0l0.3-0.6l-0.3,0.6l0,0l0.3-0.6l-0.3,0.6l0.1,0
	c0.2,0.1,0.5,0.3,0.8,0.7c0.3,0.4,0.6,0.9,0.6,1.6c0,0.2,0,0.5-0.1,0.8c-0.1,0.5-0.3,0.9-0.7,1.2c-0.5,0.5-1.2,1-2.1,1.3
	c-0.9,0.3-1.9,0.4-2.8,0.4c-0.9,0-1.7-0.1-2.3-0.3C31,8.8,29.6,7.9,28.8,7c-0.8-0.9-1.2-1.9-1.2-2.7c0-0.9,0.4-1.7,1.3-2.4
	c0.5-0.4,0.6-1,0.2-1.5s-1-0.6-1.5-0.2c-1.4,1-2.2,2.5-2.2,4.1c0,1.4,0.6,2.9,1.8,4.1c1.1,1.2,2.8,2.3,5,3.1c0.9,0.3,1.9,0.5,3,0.5
	c1.5,0,3.2-0.3,4.6-1c0.7-0.4,1.4-0.8,1.9-1.4c0.5-0.6,1-1.3,1.2-2.2C43,7,43,6.5,43,6.1c0-1.5-0.7-2.6-1.3-3.3
	c-0.7-0.7-1.3-1-1.3-1l-0.5,1l0.5-0.9c-0.1,0-1.1-0.6-2.5-0.6c-0.6,0-1.4,0.1-2.1,0.5c-0.7,0.4-1.3,1.1-1.8,2
	c-0.4,0.8-0.6,1.6-0.6,2.4c0,0.9,0.2,1.8,0.6,2.7c0.6,1.3,1.5,2.4,2.6,3.6c1.1,1.1,2.3,2.2,3.6,3.3c1.6,1.3,2.6,3.2,3.2,4.8
	c0.3,0.8,0.5,1.5,0.6,2c0.1,0.3,0.1,0.5,0.1,0.6l0,0.2v0l0,0c0.1,0.6,0.6,1,1.2,0.9C46,24.1,46.4,23.6,46.3,23"/>
<path class="st8" d="M55.1,4.2c-2.6,0-5.5,2-5.6,2.1c-1,3-2.1,6.7-2.9,9.9c0.9-0.1,1.8-0.1,2.7-0.1c2.1,0,4.1,0.2,6,0.5
	c0.1,0,0.2,0,0.2,0c0.2,0,0.4,0,0.6,0.1c0,0,0.1,0,0.1,0.1c0.3,0,0.6,0.1,0.8,0.2c-0.2-6,1.9-9.8,1.9-9.8
	C58.1,4.9,56.6,4.2,55.1,4.2"/>
<path class="st9" d="M56.2,16.7c0.3,0.1,0.6,0.3,0.8,0.5c0-0.1,0-0.2,0-0.4C56.8,16.8,56.5,16.8,56.2,16.7 M49.2,16.1
	c-0.9,0-1.8,0-2.7,0.1c-0.4,1.4-0.7,2.6-1,3.8c0.6,1.7,0.8,3,0.8,3c0.1,0.5-0.2,0.9-0.6,1.1c0.4,1.2,0.8,2.4,1.3,3.2
	c0.6,0.6,1.2,1,1.8,1.3c0,0,0.1,0,0.1,0c3.9,0,3.5-11.5,6.4-12.1C53.3,16.2,51.3,16.1,49.2,16.1"/>
<path class="st10" d="M55.5,16.5c-0.1,0-0.2,0-0.2,0c0.3,0,0.6,0.1,0.9,0.2c0,0-0.1,0-0.1-0.1C55.9,16.6,55.7,16.5,55.5,16.5"/>
<path class="st11" d="M44.7,24c0.7,1.4,1.5,2.5,2.3,3.3c-0.5-0.8-0.9-2-1.3-3.2c-0.1,0-0.2,0.1-0.3,0.1c0,0-0.1,0-0.1,0
	C45.1,24.2,44.9,24.1,44.7,24 M55.3,16.5c-2.8,0.6-2.5,12.1-6.4,12.1c0,0-0.1,0-0.1,0c0.1,0,0.2,0.1,0.3,0.1c0.5,0,1,0.1,1.5,0.1
	s1,0,1.5-0.1c3-0.9,4.5-3.5,5.9-6c-0.6-2-0.8-3.9-0.9-5.5c-0.3-0.2-0.6-0.4-0.8-0.5C55.9,16.7,55.6,16.6,55.3,16.5"/>
<path class="st12" d="M49,28.8c0.3,0.1,0.5,0.2,0.8,0.3c0.8,0,1.6-0.1,2.2-0.3c-0.5,0-1,0.1-1.5,0.1S49.5,28.8,49,28.8"/>
<path class="st13" d="M58,22.8c-1.4,2.5-2.9,5.1-5.9,6c2.5-0.2,4.4-1,5.9-2c0.7-0.5,1.1-1,1.1-1C58.6,24.8,58.2,23.8,58,22.8"/>
<path class="st14" d="M58,26.8c-1.5,1-3.4,1.8-5.9,2c-0.7,0.2-1.4,0.3-2.2,0.3c0.6,0.2,1.2,0.3,1.8,0.3C54.3,29.4,56.6,27.8,58,26.8
	"/>
<path class="st15" d="M45.5,20c-0.6,2.3-0.9,3.9-0.9,3.9c0,0,0,0.1,0.1,0.1c0.2,0.1,0.4,0.2,0.6,0.2c0,0,0.1,0,0.1,0
	c0.1,0,0.2,0,0.3-0.1c0.4-0.2,0.7-0.6,0.6-1.1C46.3,22.9,46.1,21.7,45.5,20"/>
</svg>
