<?xml version="1.0" encoding="utf-8"?>
<!-- Generator: Adobe Illustrator 28.0.0, SVG Export Plug-In . SVG Version: 6.00 Build 0)  -->
<svg version="1.1" id="Layer_1" xmlns="http://www.w3.org/2000/svg" xmlns:xlink="http://www.w3.org/1999/xlink" x="0px" y="0px"
	 width="45.3px" height="62.3px" viewBox="0 0 45.3 62.3" style="enable-background:new 0 0 45.3 62.3;" xml:space="preserve">
<style type="text/css">
	.st0{fill:#F1C630;}
	.st1{fill:#FFE79C;}
	.st2{fill:#FFF55F;}
	.st3{fill:#FFF8E6;}
	.st4{fill:#3767D3;}
	.st5{fill:#345028;}
</style>
<path class="st0" d="M39,31.3c0,15.1-3.5,27.5-19.5,27.4C4.4,58.5,0,46.4,0,31.3S3.1,3.9,19.5,3.9C35.2,4,39,16.2,39,31.3"/>
<path class="st1" d="M33.4,9.6c4.2,5,5.6,12.9,5.6,21.7c0,15-3.5,27.4-19.2,27.4c-0.1,0-0.2,0-0.3,0c-2,0-3.9-0.3-5.5-0.7
	c3,2.8,6.7,4.4,11.4,4.4c1.5,0,3.1-0.2,4.7-0.5c16-3.2,16.9-16.4,13.7-31.5C41.9,21.3,38.9,13.6,33.4,9.6"/>
<path class="st2" d="M23.7,6.5c-1.6,0-3.3,0.2-5.1,0.6C2.1,10.4,1.6,23.4,4.8,38.6c1.7,8.2,4.5,15.2,9.1,19.4
	c1.7,0.4,3.5,0.7,5.5,0.7c0.1,0,0.2,0,0.3,0C35.5,58.7,39,46.3,39,31.3c0-8.9-1.3-16.7-5.6-21.7C30.8,7.6,27.6,6.5,23.7,6.5"/>
<path class="st0" d="M33.3,31c1.2,8.4-0.7,15.8-8.5,16.8c-8.1,1-11.8-5.2-13.1-13.6c-1.2-8.4,1-15.7,8.5-16.8
	C27.3,16.4,32.1,22.6,33.3,31z"/>
<path class="st3" d="M24.3,27.4c0.4-1,1.2-1.8,2.2-2.3l0.3-0.1l0.2,0.1c0.2,0.1,0.3,0.2,0.3,0.5c0,0.2-0.1,0.3-0.2,0.5
	c-0.5,0.7-1.2,1.2-1.8,1.7c-0.2,0.2-0.7,0.7-1,0.5C24,28.2,24.2,27.7,24.3,27.4L24.3,27.4z"/>
<path class="st3" d="M26.8,28.4c0.7-0.8,1.8-1.3,2.8-1.4l0.3,0l0.2,0.2c0.1,0.2,0.2,0.3,0.2,0.5c0,0.2-0.2,0.3-0.3,0.4
	c-0.7,0.4-1.5,0.8-2.3,1c-0.3,0.1-0.9,0.4-1.1,0.1C26.3,29,26.6,28.6,26.8,28.4L26.8,28.4z"/>
<path class="st3" d="M20.6,23.6c0.4-1,1.2-1.8,2.2-2.3l0.3-0.1l0.2,0.1c0.2,0.1,0.3,0.2,0.3,0.5c0,0.2-0.1,0.3-0.2,0.5
	c-0.5,0.7-1.2,1.2-1.8,1.7c-0.2,0.2-0.7,0.7-1,0.5C20.3,24.3,20.5,23.8,20.6,23.6L20.6,23.6z"/>
<path class="st3" d="M23.1,24.5c0.7-0.8,1.8-1.3,2.9-1.4l0.3,0l0.2,0.2c0.1,0.2,0.2,0.3,0.2,0.5c0,0.2-0.2,0.3-0.3,0.4
	c-0.7,0.4-1.5,0.8-2.3,1c-0.3,0.1-0.9,0.4-1.1,0.1C22.6,25.1,22.9,24.7,23.1,24.5L23.1,24.5z"/>
<path class="st3" d="M25.6,30.8c0.9-0.6,2-0.8,3.1-0.6l0.2,0.1l0.1,0.2c0.1,0.2,0.1,0.4,0,0.6c-0.1,0.2-0.3,0.2-0.4,0.3
	c-0.8,0.2-1.6,0.4-2.5,0.4c-0.3,0-1,0.1-1.1-0.2C24.9,31.2,25.3,31,25.6,30.8z"/>
<path class="st3" d="M27.9,32.8c0.9-0.6,2-0.8,3.1-0.6l0.2,0.1l0.1,0.2c0.1,0.2,0.1,0.4,0,0.6c-0.1,0.2-0.3,0.2-0.4,0.3
	c-0.8,0.2-1.6,0.4-2.5,0.4c-0.3,0-1,0.1-1.1-0.2C27.2,33.2,27.7,32.9,27.9,32.8z"/>
<path class="st3" d="M26.6,35.6c0.9-0.5,2.1-0.7,3.1-0.5l0.2,0.1l0.1,0.2c0.1,0.2,0.1,0.4,0,0.6c-0.1,0.2-0.3,0.2-0.4,0.2
	c-0.8,0.2-1.7,0.3-2.5,0.3c-0.3,0-1,0.1-1.1-0.2C25.9,36,26.3,35.8,26.6,35.6L26.6,35.6z"/>
<path class="st3" d="M28,37.9c1.1-0.2,2.2,0,3.1,0.6l0.2,0.2l0,0.2c0,0.2,0,0.4-0.2,0.5c-0.1,0.1-0.3,0.1-0.5,0.1
	c-0.8-0.1-1.7-0.3-2.4-0.6c-0.3-0.1-0.9-0.2-1-0.6C27.2,38,27.7,37.9,28,37.9z"/>
<path class="st3" d="M25.5,39.1c1.1,0.1,2.1,0.6,2.9,1.4l0.1,0.2l0,0.2c-0.1,0.2-0.1,0.4-0.3,0.5c-0.2,0.1-0.3,0-0.5-0.1
	c-0.8-0.3-1.5-0.7-2.2-1.2c-0.2-0.2-0.8-0.5-0.8-0.8C24.8,39,25.3,39.1,25.5,39.1L25.5,39.1z"/>
<path class="st3" d="M26.2,42c1.1,0.1,2.1,0.6,2.9,1.4l0.1,0.2l0,0.2c-0.1,0.2-0.1,0.4-0.3,0.5c-0.2,0.1-0.3,0-0.5-0.1
	c-0.8-0.3-1.5-0.7-2.2-1.2c-0.2-0.2-0.8-0.5-0.8-0.8C25.4,42,26,42,26.2,42L26.2,42z"/>
<path class="st3" d="M19.1,28.7c-0.8-0.7-1.9-1.1-3-1.1l-0.3,0l-0.2,0.2c-0.1,0.2-0.2,0.4-0.1,0.5c0.1,0.2,0.2,0.3,0.4,0.3
	c0.8,0.4,1.6,0.6,2.4,0.8c0.3,0,0.9,0.3,1.1,0C19.7,29.2,19.3,28.9,19.1,28.7L19.1,28.7z"/>
<path class="st3" d="M17.3,30.7c-1-0.4-2.2-0.4-3.2,0l-0.2,0.1L13.8,31c0,0.2-0.1,0.4,0.1,0.6c0.1,0.1,0.3,0.2,0.5,0.2
	c0.8,0.1,1.7,0.1,2.5,0c0.3,0,1,0,1.1-0.4C18,31,17.5,30.8,17.3,30.7z"/>
<path class="st3" d="M19.7,24.1c-0.6-0.9-1.5-1.6-2.5-1.9l-0.3,0l-0.2,0.1c-0.1,0.1-0.3,0.3-0.3,0.5c0,0.2,0.2,0.3,0.3,0.4
	c0.6,0.6,1.3,1,2.1,1.4c0.2,0.1,0.8,0.5,1.1,0.3C20.2,24.8,19.9,24.4,19.7,24.1L19.7,24.1z"/>
<path class="st3" d="M19,25.6c-1-0.4-2.2-0.4-3.2,0l-0.2,0.1l-0.1,0.2c0,0.2-0.1,0.4,0.1,0.6c0.1,0.1,0.3,0.2,0.5,0.2
	c0.8,0.1,1.7,0.1,2.5,0c0.3,0,1,0,1.1-0.4C19.7,25.9,19.2,25.7,19,25.6z"/>
<path class="st3" d="M19.4,32.3c-1.1-0.1-2.2,0.1-3.1,0.8l-0.2,0.2l0,0.2c0,0.2,0,0.4,0.2,0.5c0.1,0.1,0.3,0.1,0.5,0.1
	c0.8-0.1,1.7-0.4,2.4-0.7c0.2-0.1,0.9-0.3,0.9-0.6C20.2,32.4,19.7,32.4,19.4,32.3L19.4,32.3z"/>
<path class="st3" d="M18.1,35.1c-1.1-0.1-2.2,0.1-3.1,0.8L14.9,36l0,0.2c0,0.2,0,0.4,0.2,0.5c0.1,0.1,0.3,0.1,0.5,0.1
	c0.8-0.1,1.7-0.4,2.4-0.7c0.2-0.1,0.9-0.3,0.9-0.6C18.9,35.2,18.4,35.1,18.1,35.1L18.1,35.1z"/>
<path class="st3" d="M20.6,37.1c-1.1-0.1-2.2,0.3-3,0.9l-0.2,0.2v0.2c0,0.2,0.1,0.4,0.2,0.5c0.2,0.1,0.3,0.1,0.5,0
	c0.8-0.2,1.6-0.4,2.4-0.8c0.2-0.1,0.9-0.3,0.9-0.7C21.4,37.2,20.9,37.1,20.6,37.1L20.6,37.1z"/>
<path class="st3" d="M20.3,39.8c-1,0.3-2,1-2.6,1.9l-0.1,0.2l0.1,0.2c0.1,0.2,0.2,0.4,0.4,0.4c0.2,0,0.3-0.1,0.5-0.1
	c0.7-0.4,1.4-1,2-1.6c0.2-0.2,0.8-0.6,0.6-0.9C21,39.6,20.5,39.7,20.3,39.8z"/>
<path class="st3" d="M22.4,40.5c-0.9,0.5-1.7,1.4-2,2.5l0,0.3l0.1,0.2c0.1,0.2,0.3,0.3,0.5,0.3c0.2,0,0.3-0.1,0.4-0.3
	c0.6-0.6,1.1-1.3,1.5-2c0.1-0.2,0.6-0.8,0.4-1.1C23.1,40.1,22.6,40.4,22.4,40.5L22.4,40.5z"/>
<path class="st3" d="M23.6,43c-0.7,0.8-1.1,1.9-1.1,3l0,0.3l0.2,0.2c0.2,0.1,0.4,0.2,0.5,0.1c0.2-0.1,0.3-0.2,0.3-0.4
	c0.4-0.8,0.6-1.6,0.8-2.4c0-0.3,0.3-0.9,0-1.1C24.1,42.4,23.8,42.8,23.6,43L23.6,43z"/>
<path class="st4" d="M15.6,0c-1.1,0-2.5,0.8-2.6,0.8c-1.2,2-0.9,3.8-0.8,4.1c1.4-0.5,2.9-0.8,4.7-0.9c-0.8-1.9,0-3.2,0-3.2
	C16.6,0.2,16.1,0,15.6,0"/>
<path class="st5" d="M16.8,4c-1.7,0.2-3.3,0.5-4.7,0.9c0,0,0,0.1,0,0.1c0.1,1,0.8,1.3,1.5,1.3c1.5,0,3.7-1.2,3.7-1.2
	C17.1,4.7,16.9,4.4,16.8,4"/>
</svg>
