<?xml version="1.0" encoding="utf-8"?>
<!-- Generator: Adobe Illustrator 28.0.0, SVG Export Plug-In . SVG Version: 6.00 Build 0)  -->
<svg version="1.1" id="Layer_1" xmlns="http://www.w3.org/2000/svg" xmlns:xlink="http://www.w3.org/1999/xlink" x="0px" y="0px"
	 width="75.9px" height="67.9px" viewBox="0 0 75.9 67.9" style="enable-background:new 0 0 75.9 67.9;" xml:space="preserve">
<style type="text/css">
	.st0{fill:#D8D5B4;}
	.st1{fill:#17A27B;}
	.st2{fill:#007662;}
	.st3{fill:#006345;}
	.st4{fill:#004B2F;}
</style>
<path class="st0" d="M23.9,8.1c-8.5,7.6-6.6,23.6,4.2,35.7s26.5,15.7,35,8c4.5-4.1,6.1-10.5,5-17.4C65.3,1.7,80.2,7.7,74.7,1.5
	c-2.8-3.2-2.9-0.8-6.6,1.5c-3.7,2.3-10.9,4.7-27.9,1.5c-0.2,0-0.5-0.1-0.7-0.1C33.6,3.4,28,4.5,23.9,8.1"/>
<path class="st1" d="M32.9,39.2c-1.9,1.9-4,3.5-6.4,4.8c-2.5,1.4-5.3,2.4-8.2,1.5c-1.5-0.4-2.9-1.2-4.3-2c-1.4-0.7-2.8-1.4-4.2-2.1
	c-1.4-0.6-2.8-1.3-4.2-1.7c-1.1-0.3-2.2-0.3-3.2,0.3c-1.8,1-2.7,3.2-2.4,5.1c0.4,2.3,2.3,4.2,4.4,5c2.6,1.1,5.6,0.9,8.4,0.5
	c2.6-0.4,5.1-1,7.5-1.9c2.7-1,5.3-2.3,7.7-3.8c1.2-0.8,2.4-1.7,3.5-2.6c0.9-0.8,1.9-1.7,2.1-2.8C33.7,38.6,32.8,39.2,32.9,39.2"/>
<path class="st2" d="M29.7,45.4c-0.6,2.2-0.9,4.4-1,6.7c0,2.2,0.2,4.4,0.7,6.5c0.5,2.3,1.3,4.8,3.1,6.8c1.3,1.4,3.4,2.5,5.5,2.5
	c0.2,0,0.3,0,0.5,0c1.9-0.2,3.5-1.4,3.9-3.1c0.2-0.9-0.1-1.9-0.7-2.7C40.8,61,39.7,60,38.7,59c-1-1-2.1-2-3.2-2.9
	c-1.1-1-2.2-1.9-3.1-3.1c-1.5-1.9-1.6-4.1-1.3-6.3C30.6,46.3,30.1,45.9,29.7,45.4"/>
<path class="st3" d="M32.8,41.3c-0.4,0.4-0.8,0.8-1.3,1.2c-0.4,0.4-0.9,0.7-1.3,1.1c-0.2,0.5-0.3,0.9-0.5,1.4c0,0.1-0.1,0.3-0.1,0.4
	c0.5,0.5,1,0.9,1.5,1.4c0-0.2,0.1-0.5,0.1-0.7C31.6,44.4,32.1,42.8,32.8,41.3 M32.7,39.3c-0.4,0.2-0.7,0.5-0.9,0.9
	C32.1,39.9,32.4,39.7,32.7,39.3"/>
<path class="st4" d="M33.2,39.2c-0.1,0-0.2,0-0.3,0.1c-0.1,0-0.2,0.1-0.2,0.1c-0.3,0.3-0.6,0.6-0.9,0.9c-0.3,0.4-0.5,0.9-0.7,1.3
	c-0.3,0.7-0.6,1.3-0.8,2c0.5-0.3,0.9-0.7,1.3-1.1c0.4-0.4,0.9-0.8,1.3-1.2c0.2-0.5,0.5-1,0.8-1.5C33.6,39.8,33.8,39.2,33.2,39.2"/>
</svg>
