<?xml version="1.0" encoding="utf-8"?>
<!-- Generator: Adobe Illustrator 28.0.0, SVG Export Plug-In . SVG Version: 6.00 Build 0)  -->
<svg version="1.1" id="Layer_1" xmlns="http://www.w3.org/2000/svg" xmlns:xlink="http://www.w3.org/1999/xlink" x="0px" y="0px"
	 width="58.8px" height="89.4px" viewBox="0 0 58.8 89.4" style="enable-background:new 0 0 58.8 89.4;" xml:space="preserve">
<style type="text/css">
	.st0{fill:#17A27B;}
	.st1{fill:#4ED8AA;}
	.st2{fill:#0EE3A7;}
	.st3{fill:#D6FF66;}
	.st4{fill:#B5FF62;}
	.st5{fill:#C7FF88;}
	.st6{fill:#B2FF85;}
	.st7{fill:#0EE3A4;}
	.st8{fill:#02EBA1;}
	.st9{fill:#26FF62;}
	.st10{fill:#20FF5E;}
	.st11{fill:#23FF83;}
	.st12{fill:#20FF80;}
	.st13{fill:#F0EED7;}
</style>
<path class="st0" d="M56.2,10.6c-13.7,6.6-24.8,17.9-33.3,29.6c-5.8,9-11.5,20.4-15.8,34.8c19.1-50.1,51.7-59.9,51.7-59.9L56.2,10.6
	"/>
<path class="st1" d="M39.8,0C3.8,26,1.2,83.3,1.2,83.3l3.4-0.2c0-0.4,0.1-0.9,0.1-1.3l-2.9-0.5c0,0,0.1-0.3,0.2-0.9l-0.4-0.1
	c0,0,0.3-0.8,0.8-2.3h0c0,0,0.9-21.6,15.1-44.6C29.1,10.3,43.4,3.3,43.4,3.3L39.8,0"/>
<path class="st2" d="M2.5,77.9c-0.6,1.5-0.8,2.3-0.8,2.3l0.4,0.1c0.1-0.6,0.3-1.4,0.6-2.4L2.5,77.9"/>
<path class="st3" d="M7.1,75.1c-0.8,2-1.5,4.1-2.2,6.2l-0.1,0c0,0.2,0,0.4,0,0.6l0.5,0.1C5.9,79.5,6.5,77.2,7.1,75.1 M52.2,7.5
	c-7.4,4.1-27.3,17.6-39.8,49.3c2.9-5.3,6.4-11,10.5-16.6c14.9-22.9,31.3-30,31.3-30L52.2,7.5"/>
<path class="st4" d="M22.9,40.2c-4.1,5.6-7.6,11.3-10.5,16.6c-2.5,6.4-4.8,13.6-6.5,21.5l-0.7-0.1c-0.1,1-0.2,2-0.3,3l0.1,0
	c0.7-2.1,1.5-4.2,2.2-6.2C11.4,60.7,17,49.2,22.9,40.2"/>
<path class="st5" d="M2.1,80.3c-0.1,0.6-0.2,0.9-0.2,0.9l2.9,0.5c0-0.2,0-0.4,0-0.6L2.1,80.3"/>
<path class="st6" d="M2.7,77.9c-0.2,1-0.4,1.9-0.6,2.4l2.8,0.9c0.1-1,0.2-2,0.3-3L2.7,77.9"/>
<path class="st0" d="M49.7,0.8c-14.8,9.6-25,21.2-32,32.5c-3.5,7.1-6.8,15.7-9.2,26.1c6.9-18.1,20-42.6,42.8-53.3l1,1.3
	c1.9-1,2.9-1.5,2.9-1.5L49.7,0.8"/>
<path class="st7" d="M17.6,33.3C3.4,56.3,2.5,77.9,2.5,77.9h0c0.1-0.3,0.2-0.6,0.4-1c1-3.9,2.8-10.2,5.5-17.5
	C10.9,49,14.1,40.4,17.6,33.3"/>
<path class="st8" d="M2.9,76.9c-0.1,0.4-0.3,0.7-0.4,1l0.1,0C2.7,77.6,2.8,77.3,2.9,76.9"/>
<path class="st9" d="M51.2,6.1C28.4,16.9,15.3,41.3,8.4,59.4c-0.7,2.8-1.3,5.7-1.8,8.8c1.5-3.4,3.5-7.3,5.8-11.4
	C24.9,25.1,44.8,11.6,52.2,7.5L51.2,6.1"/>
<path class="st10" d="M12.4,56.8c-2.3,4.2-4.2,8.1-5.8,11.4c-0.6,3.2-1,6.5-1.5,10l0.7,0.1C7.6,70.4,9.9,63.2,12.4,56.8"/>
<path class="st11" d="M8.4,59.4C5.7,66.7,3.9,73,2.9,76.9c0.8-2.1,2.1-5.1,3.7-8.7C7.2,65.2,7.8,62.2,8.4,59.4"/>
<path class="st12" d="M6.6,68.2c-1.7,3.6-2.9,6.6-3.7,8.7c-0.1,0.3-0.2,0.7-0.2,1l2.5,0.3C5.6,74.8,6.1,71.4,6.6,68.2"/>
<path class="st13" d="M3.6,66.2c-0.2,0.1-0.3,0.1-0.4,0.2C3,66.7,3.1,67,3.1,67.3c-0.3,3.3-1.3,5.9-1.6,9.1
	c-0.1,1.2-0.5,2.1-0.9,3.2c-0.4,1.5-0.9,4.9-0.3,6.5s2.3,1.4,3.8,1.9c1.8,0.6,3.2,2.2,4.1,0.6c0.8-1.6,1.3-6.1,1.4-8.1
	c0-0.5,0-1,0-1.6c0-0.7-0.2-1.3-0.2-2c-0.1-1.1,0-2.2,0.2-3.3c0.2-1.3,0.6-2.7,0.8-4c0.1-0.7,0.3-1.2,0.4-1.9c0.1-0.9,0.7-0.8-1-1.3
	C7.7,66,5.3,65.6,3.6,66.2L3.6,66.2z"/>
</svg>
