<?xml version="1.0" encoding="utf-8"?>
<!-- Generator: Adobe Illustrator 28.0.0, SVG Export Plug-In . SVG Version: 6.00 Build 0)  -->
<svg version="1.1" id="Layer_1" xmlns="http://www.w3.org/2000/svg" xmlns:xlink="http://www.w3.org/1999/xlink" x="0px" y="0px"
	 width="55.8px" height="90.2px" viewBox="0 0 55.8 90.2" style="enable-background:new 0 0 55.8 90.2;" xml:space="preserve">
<style type="text/css">
	.st0{fill:#007662;}
	.st1{fill:#61DCB3;}
	.st2{fill:#00CB91;}
	.st3{fill:#FC8E2C;}
	.st4{fill:#000900;}
	.st5{fill:#5FB405;}
	.st6{fill:#00A200;}
</style>
<path class="st0" d="M18.6,0.3c-1.1,0-2.1,0.2-3,0.9c-2.1,1.5-1.2,4.3-0.1,6.1c1.1,1.7,4,5.3,0.8,6.6c-1.1,0.5-2.8,1.5-3.5,2.7
	c-1,1.9,0.1,3.9,0.9,4.9c1.9,2.4,5.7,2.1,7.6,4.5c2.7,3.6,1.9,7.7,0.9,10.9c0.2,0,0.3,0,0.5,0c1-3.4,2.1-7.4,2.2-8
	c1.5-6.6,4-12.7,6.9-18.7c-2-3.8-5.5-7.2-9.2-9C21.5,0.7,20,0.3,18.6,0.3"/>
<path class="st1" d="M45.1,0c-0.8,0-1.7,0.1-2.7,0.2c-0.9,0.1-2.4,0.8-3.2,1.2c-0.8,0.4-1.4,0.9-2.1,1.4c-1.4,1.2-2.9,3-3.7,4.6
	c-0.5,1-1,2-1.4,2.9c0.6,1.2,1.1,2.4,1.3,3.7c0.8,4.1,0.1,6.1-1,8.5c-1.3,3-5,7-6.6,10.8L24,37.2c0.1,0,0.2,0,0.3,0
	c1.2-2.8,3.2-5.8,6.9-6.2c0.4,0,1.6-0.2,2.1-1c0.4-0.7,0.3-1.5,0.2-1.6c-0.2-0.5-0.5-1-0.7-1.6c-0.2-0.5-0.5-1.1-0.2-1.6
	c0.3-0.5,0.8-0.6,1.4-0.6c0.2,0,0.3,0,0.4,0c0.9,0.1,1.7,0.3,2.6,0.4c0.4,0,0.8,0.1,1.1,0.1c0.5,0,1,0,1.5-0.1
	c0.7-0.1,2.1-0.7,2.5-1.3c0.5-0.8,0.3-1.6-0.1-2.3c-0.3-0.6-0.8-1-1.5-1.4c-0.8-0.5-1.2-1-1-1.8c0.1-0.2,0-0.7,0.7-1.4
	c0,0,0.9-1.1,2.7-1.4c0.4-0.1,0.8-0.1,1.2-0.1c1.8,0,2.5,0.8,3.9,0.9c0.1,0,0.2,0,0.3,0c0.8,0,1.5-0.2,2.5-0.7
	c1.4-0.8,2.7-1.6,3.7-3.4c0.8-1.4,1.5-3.4,1.2-4.7C54.9,3.5,51.9,2,51.9,2C49.3,0.6,47.4,0,45.1,0"/>
<path class="st2" d="M31.9,10.4C29,16.4,26.4,22.5,25,29.1c-0.1,0.5-1.3,4.5-2.2,8c0.4,0,0.8,0.1,1.2,0.2l1.7-3.9
	c1.5-3.7,5.3-7.8,6.6-10.8c1.1-2.5,1.8-4.5,1-8.5C33,12.8,32.5,11.6,31.9,10.4"/>
<path class="st3" d="M20.4,36.9c-1.5,0-3,0.3-4.2,1.1c-0.8,0.6-1.3,1.3-1.8,2.1c-0.5,0.9-1,1.8-1.5,2.7c-1,1.9-1.8,3.8-2.6,5.7
	c-1.5,3.9-2.6,7.9-3.2,12c-0.6,4.3-0.5,8.7-1.2,13.1c-0.7,4.1-2,8.2-4,12c-0.5,0.9-1.1,1.8-1.5,2.8c-0.1,0.2-0.1,0.3-0.2,0.5
	c-0.1,0.3-0.1,0.5-0.2,0.7c-0.1,0.3,0.1,0.5,0.3,0.5c0.2,0,0.4-0.1,0.6-0.3c3-3.5,5.9-7.1,8.7-10.8c2.7-3.5,5.5-6.9,7.7-10.7
	c1.1-1.8,2-3.8,2.7-5.8c0.7-2,1.3-4.1,2.3-6c1.8-3.5,4.6-6.5,6.4-10c0.8-1.6,1.6-3.4,1.4-5.2c-0.2-1.7-1.4-2.9-3.2-3.5
	c-0.8-0.3-1.7-0.5-2.7-0.7c-1.1,2.5-1.6,4.7-2.2,4.9c-0.1,0-0.3,0.1-0.4,0.1c-0.1,0-0.2,0-0.2-0.1c-0.1,0-0.3-0.1-0.3-0.3
	c-0.2-1.1,0.5-2.8,1.1-4.9c-0.3,0-0.5,0-0.8-0.1C21.1,36.9,20.8,36.9,20.4,36.9"/>
<path class="st4" d="M22.2,37c-0.6,2.1-1.3,3.8-1.1,4.9c0,0.2,0.2,0.3,0.3,0.3l0,0l0-0.2c0.1-0.4,0.7-2.5,1.3-4.9
	C22.6,37.1,22.4,37,22.2,37"/>
<path class="st5" d="M24,37.2l-2,4.5c-0.1,0.3-0.3,0.5-0.5,0.5l0,0c0,0,0.1,0.1,0.2,0.1c0.2,0,0.3-0.1,0.4-0.1
	c0.6-0.2,1.1-2.5,2.2-4.9C24.2,37.2,24.1,37.2,24,37.2"/>
<path class="st6" d="M22.8,37.1c-0.7,2.4-1.3,4.5-1.3,4.9l0,0.2l0,0l0,0c0.2,0,0.5-0.2,0.5-0.5l2-4.5C23.6,37.2,23.2,37.1,22.8,37.1
	"/>
</svg>
