<?xml version="1.0" encoding="utf-8"?>
<!-- Generator: Adobe Illustrator 28.0.0, SVG Export Plug-In . SVG Version: 6.00 Build 0)  -->
<svg version="1.1" id="Layer_1" xmlns="http://www.w3.org/2000/svg" xmlns:xlink="http://www.w3.org/1999/xlink" x="0px" y="0px"
	 width="74.9px" height="113.7px" viewBox="0 0 74.9 113.7" style="enable-background:new 0 0 74.9 113.7;" xml:space="preserve">
<style type="text/css">
	.st0{fill:#17A27B;}
	.st1{fill:#E4FF9A;}
	.st2{fill:#7FDF6B;}
	.st3{fill:#F0EED7;}
</style>
<path class="st0" d="M0,28.2l5.9-11.5c0,0,18.4,7.1,41.9,43c0,0-10.2-36.8-30.8-52.2L28.1,0c0,0,24.8,28.5,37.6,84.4l-11.6,7.3
	C54.2,91.7,36.3,41.6,0,28.2"/>
<path class="st1" d="M18.1,14.9l-4.3,6.5c7.5,5.5,19.8,16.6,34,38.2c0,0-3.2-11.4-9.5-24.2C26.7,19.4,18.1,14.9,18.1,14.9 M40.2,2.1
	L32.6,6c7.7,11,23.4,36.9,32.9,77.4l0.7-0.3C60.1,30.7,40.2,2.1,40.2,2.1"/>
<path class="st2" d="M32.6,6l-3.4,1.7c17.4,16.2,23,50.9,23,50.9c-4.9-9.6-9.6-17.2-14-23.1c6.4,12.8,9.5,24.1,9.5,24.1
	c-14.1-21.5-26.4-32.7-34-38.2l-2.3,3.4c32,16.1,43.2,63.7,43.2,63.7l10.7-5.1C56,42.9,40.3,17,32.6,6"/>
<path class="st3" d="M51.4,86.7c-0.1,0.1-0.2,0.2-0.2,0.3c0,0.2,0.1,0.4,0.2,0.6c1.1,1.9,1.7,3.9,1.9,6c0.1,0.8,0.1,1.7,0.2,2.6
	c0.2,1.1,3.8,12.7,4.7,13.4s2.2,6,10.8,3.4c6.6-2.1,5.9-6.7,5.9-8c0.1-1.3-3.9-13.6-4.5-14.8c-0.1-0.3-0.3-0.6-0.5-0.9
	c-0.2-0.4-0.5-0.7-0.8-1.1c-0.4-0.6-0.7-1.4-0.9-2.1c-0.3-0.9-0.4-1.9-0.7-2.8c-0.1-0.4-0.3-1.3-0.4-1.8c-0.2-0.6-10.7,2.3-11.9,2.8
	C53.9,84.8,52.3,85.6,51.4,86.7L51.4,86.7z"/>
</svg>
