<?xml version="1.0" encoding="utf-8"?>
<!-- Generator: Adobe Illustrator 28.0.0, SVG Export Plug-In . SVG Version: 6.00 Build 0)  -->
<svg version="1.1" id="Layer_1" xmlns="http://www.w3.org/2000/svg" xmlns:xlink="http://www.w3.org/1999/xlink" x="0px" y="0px"
	 width="47.8px" height="64.6px" viewBox="0 0 47.8 64.6" style="enable-background:new 0 0 47.8 64.6;" xml:space="preserve">
<style type="text/css">
	.st0{fill:#FFAA30;}
	.st1{fill:#17A27B;}
	.st2{fill:#2EC12E;}
	.st3{fill:#173A91;}
	.st4{fill:#2E4D4D;}
</style>
<path class="st0" d="M43.9,40.5C29.3,69.1,2.6,69.3,3.9,56.6c1.9-18.8-2.8-22.8,1.9-34.9C13.2,2.7,32.1,5,38.1,8.9
	C43.8,12.7,53.2,22.4,43.9,40.5"/>
<path class="st1" d="M21.2,0C9.9,0,0,8.8,0,8.8c3.6,2.7,7,4.4,10.2,5.3c4.9-5.9,11.5-7.8,17.2-7.8c1.9,0,3.8,0.2,5.4,0.6
	c1.1-1.2,1.6-2,1.6-2C30.1,1.3,25.6,0,21.2,0"/>
<path class="st2" d="M27.4,6.2c-5.7,0-12.3,2-17.2,7.8c2,0.6,3.9,0.8,5.8,0.8c8.3,0,14.1-5.1,16.8-8.1C31.1,6.4,29.3,6.2,27.4,6.2"
	/>
<path class="st3" d="M37,4.5c-1.6,0.8-2.4,2-2.7,2.6c1.6,0.5,2.9,1.1,3.9,1.7c0.1,0.1,0.3,0.2,0.4,0.3c0.3-2,1.7-2.7,1.7-2.7
	C40.7,4.7,37.1,4.6,37,4.5"/>
<path class="st4" d="M34.2,7.2c-0.1,0.3-0.2,0.5-0.2,0.5c-1.2,2.5,4.4,2.9,4.4,2.9c0-0.5,0-0.9,0.1-1.3c-0.1-0.1-0.3-0.2-0.4-0.3
	C37.1,8.3,35.8,7.7,34.2,7.2"/>
</svg>
